HIERARCHY
ROOT hip
{
	OFFSET 0.000000 0.000000 0.000000 
	CHANNELS 6 Xposition Yposition Zposition Xrotation Zrotation Yrotation
	JOINT abdomen
	{
		OFFSET 0.000000 3.402643 0.000000 
		CHANNELS 3 Xrotation Zrotation Yrotation
		JOINT chest
		{
			OFFSET 0.000000 8.438565 -0.680529 
			CHANNELS 3 Xrotation Zrotation Yrotation
			JOINT neck
			{
				OFFSET 0.000000 10.207942 -0.272212 
				CHANNELS 3 Xrotation Zrotation Yrotation
				JOINT head
				{
					OFFSET 0.000000 3.130431 0.000000 
					CHANNELS 3 Xrotation Zrotation Yrotation
					End Site
					{
						OFFSET 0.000000 3.130435 0.000000 
					}
				}
			}
			JOINT lCollar
			{
				OFFSET 3.470700 6.669187 -0.816635 
				CHANNELS 3 Yrotation Zrotation Xrotation
				JOINT lShldr
				{
					OFFSET 3.198488 0.000000 0.000000 
					CHANNELS 3 Zrotation Yrotation Xrotation
					JOINT lForeArm
					{
						OFFSET 10.139888 0.000000 0.000000 
						CHANNELS 3 Yrotation Zrotation Xrotation
						JOINT lHand
						{
							OFFSET 8.370511 0.000000 0.000000 
							CHANNELS 3 Zrotation Yrotation Xrotation
							End Site
							{
								OFFSET 4.083176 0.000000 0.000000 
							}
						}
					}
				}
			}
			JOINT rCollar
			{
				OFFSET -3.470700 6.669187 -0.816635 
				CHANNELS 3 Yrotation Zrotation Xrotation
				JOINT rShldr
				{
					OFFSET -3.198488 0.000000 0.000000 
					CHANNELS 3 Zrotation Yrotation Xrotation
					JOINT rForeArm
					{
						OFFSET -10.139888 0.000000 0.000000 
						CHANNELS 3 Yrotation Zrotation Xrotation
						JOINT rHand
						{
							OFFSET -8.370511 0.000000 0.000000 
							CHANNELS 3 Zrotation Yrotation Xrotation
							End Site
							{
								OFFSET -4.083176 0.000000 0.000000 
							}
						}
					}
				}
			}
		}
	}
	JOINT lThigh
	{
		OFFSET 5.308129 -1.633274 1.361059 
		CHANNELS 3 Xrotation Zrotation Yrotation
		JOINT lShin
		{
			OFFSET -2.041588 -20.007561 0.000000 
			CHANNELS 3 Xrotation Zrotation Yrotation
			JOINT lFoot
			{
				OFFSET 0.000000 -19.190928 -1.224953 
				CHANNELS 3 Xrotation Yrotation Zrotation
				End Site
				{
					OFFSET 0.000000 -2.449906 4.627600 
				}
			}
		}
	}
	JOINT rThigh
	{
		OFFSET -5.308129 -1.633274 1.361059 
		CHANNELS 3 Xrotation Zrotation Yrotation
		JOINT rShin
		{
			OFFSET 2.041588 -20.007561 0.000000 
			CHANNELS 3 Xrotation Zrotation Yrotation
			JOINT rFoot
			{
				OFFSET 0.000000 -19.190928 -1.224953 
				CHANNELS 3 Xrotation Yrotation Zrotation
				End Site
				{
					OFFSET 0.000000 -2.449906 4.627600 
				}
			}
		}
	}
}
MOTION
Frames: 8
Frame Time: 0.016667
0.961317 42.108616 0.505555 -1.104720 13.493700 -43.831699 -9.774740 0.825929 -3.783320 20.126600 2.343680 -1.999990 -10.837000 2.145460 -1.085610 4.359510 5.653390 0.122815 2.000000 -2.000000 0.000000 76.873901 -117.706001 60.002800 66.524002 -0.269313 0.125452 0.050469 -0.042872 -152.419998 -2.000000 2.000000 0.000000 -109.956001 135.292999 8.174540 -92.695702 0.208878 0.117054 -0.073749 0.054619 -156.824005 -17.401850 -8.129341 19.170986 34.269943 2.009558 2.783115 -21.069485 21.814337 9.829610 -39.090614 -11.690270 20.609917 42.688953 -2.390806 -3.000036 -10.953255 -9.245315 -1.987516 
1.049961 42.192013 0.509098 -1.070940 12.654100 -42.518398 -10.556500 1.265620 -3.474020 19.285400 2.928970 -1.842220 -10.204500 1.887780 -1.252900 4.614630 5.642890 0.040304 2.000000 -2.000000 0.000000 75.914803 -119.658997 59.699001 67.061096 -0.268135 0.125956 0.052218 -0.048742 -154.606995 -2.000000 2.000000 0.000000 -109.890999 136.319000 8.543120 -91.836403 0.210781 0.117129 -0.059783 0.041210 -151.804993 -16.923079 -7.791089 18.165169 34.481812 2.057277 2.772541 -20.879850 21.611214 9.545796 -37.623772 -11.629143 20.233931 42.223019 -2.456435 -2.945925 -11.351125 -10.391955 -2.338046 
1.133179 42.271290 0.503646 -0.967770 11.814800 -41.184299 -11.289700 1.694980 -3.139500 18.551100 3.435400 -1.672750 -9.571660 1.742760 -1.464810 4.879720 5.681080 -0.060144 2.000000 -2.000000 0.000000 75.217598 -121.514000 59.297798 67.686096 -0.266758 0.126530 0.054490 -0.055364 -157.106995 -2.000000 2.000000 0.000000 70.125397 42.713902 -171.339005 -91.201599 0.212187 0.117166 -0.057227 0.029986 -147.692993 -16.489201 -7.364087 17.102558 34.646297 2.090350 2.778681 -20.710993 21.386707 9.295630 -36.176571 -11.437855 19.911783 41.709747 -2.501883 -2.904699 -11.737500 -11.661044 -2.692898 
1.192403 42.356499 0.475055 -0.785269 10.751000 -39.755100 -11.665300 1.824190 -2.967460 18.365299 3.405720 -1.555800 -10.104500 1.891280 -1.777620 4.634740 5.799070 -0.200254 2.000000 -2.000000 0.000000 75.794998 -123.015999 58.163200 68.682198 -0.264552 0.127413 0.068144 -0.064969 -160.807999 -2.000000 2.000000 0.000000 70.543503 42.166000 -170.901001 -90.762199 0.213160 0.117183 -0.055751 0.020780 -144.363007 -16.109972 -6.650259 15.951355 34.976883 2.118335 2.769884 -20.473812 21.247833 9.086708 -34.531891 -10.888782 19.634237 41.039433 -2.548476 -2.855885 -12.121626 -13.214831 -3.141663 
1.224037 42.454605 0.458857 -0.852265 9.793860 -38.152302 -12.039100 1.912760 -2.876400 18.169300 3.522340 -1.503900 -10.480600 2.193260 -2.136490 4.438980 5.994960 -0.335763 2.000000 -2.000000 0.000000 76.508400 -124.646004 56.754902 69.756401 -0.262155 0.128322 0.072029 -0.073113 -164.031006 -2.000000 2.000000 0.000000 70.717300 41.539799 -170.365005 -90.430099 0.213896 0.117190 -0.054890 0.012540 -141.404007 -15.494750 -6.214074 14.794260 35.070202 2.180901 2.757405 -20.122335 21.071346 8.783087 -32.717476 -10.556413 19.415159 40.465534 -2.617549 -2.812692 -12.626284 -14.969454 -3.658782 
1.228081 42.565716 0.455047 -1.176480 8.962990 -36.383801 -12.401700 1.964260 -2.856510 17.943501 3.794890 -1.500820 -10.720400 2.630020 -2.529830 4.312070 6.278500 -0.474553 2.000000 -2.000000 0.000000 77.338600 -126.382004 55.112099 70.928299 -0.259522 0.129262 0.075693 -0.079867 -166.774994 -2.000000 2.000000 0.000000 70.646698 40.854698 -169.731995 -90.195702 0.214415 0.117193 -0.054485 0.005277 -138.807007 -14.677079 -6.034878 13.641623 35.026516 2.236492 2.735881 -19.701372 20.860825 8.422846 -30.752165 -10.432432 19.273394 39.980923 -2.665767 -2.770215 -13.331005 -16.916006 -4.315200 
1.188381 42.670002 0.472173 -1.440760 8.268910 -34.190899 -12.477700 1.699120 -2.821710 18.335699 3.483720 -1.462900 -10.026100 3.090680 -2.465320 4.626870 6.404540 -0.390227 2.000000 -2.000000 0.000000 78.657402 -127.942001 53.801399 72.451698 -0.256071 0.130404 0.079471 -0.095880 -169.382996 -2.000000 2.000000 0.000000 70.693802 40.277699 -169.401001 -90.332497 0.214112 0.117192 -0.054398 0.000219 -137.000000 -13.924954 -5.886927 12.383512 34.893833 2.294282 2.697424 -19.085644 20.598677 8.034513 -28.998955 -10.347918 18.881031 39.907085 -2.734219 -2.755984 -14.488061 -18.582218 -5.134430 
1.102754 42.750828 0.488114 -1.594970 7.301890 -31.882099 -12.605200 1.632650 -2.753320 18.619900 3.269620 -1.399390 -9.469320 3.491940 -2.535380 4.853390 6.540460 -0.372981 2.000000 -2.000000 0.000000 79.889297 -129.727997 52.588001 74.033699 -0.252457 0.131492 0.083262 -0.101568 -171.824005 -2.000000 2.000000 0.000000 70.369698 39.622700 -169.076996 -90.381302 0.214004 0.117191 -0.054460 -0.004456 -135.330002 -13.256450 -5.272243 11.152743 35.085052 2.350833 2.681120 -18.616259 20.074318 7.561358 -27.038025 -9.923542 18.209183 39.708084 -2.765221 -2.731133 -15.780018 -19.661280 -5.942849 
